<mxfile host="app.diagrams.net" modified="2023-05-08T16:51:08.203Z" agent="Mozilla/5.0 (Windows NT 10.0; Win64; x64) AppleWebKit/537.36 (KHTML, like Gecko) Chrome/113.0.0.0 Safari/537.36 Edg/113.0.1774.35" version="21.2.4" etag="9fK9G_2-YFrFP7II6T5p" type="github">
  <diagram name="PÃ¡gina-1" id="KW93ERO5lj1HrjyPAL0R">
    <mxGraphModel>
      <root>
        <mxCell id="0" />
        <mxCell id="1" parent="0" />
      </root>
    </mxGraphModel>
  </diagram>
</mxfile>
